<svg width="846" height="317" viewBox="0 0 846 317" fill="none" xmlns="http://www.w3.org/2000/svg">
<path d="M506.933 84.4055V215.353C506.933 259.753 478.488 288.151 434.579 288.151C410.197 288.151 386.041 279.136 369.11 263.134C366.965 260.992 365.949 259.077 365.949 256.936C365.949 252.879 369.448 249.385 373.512 249.385C375.431 249.385 377.011 250.287 378.478 251.526C394.733 265.951 413.809 273.388 434.24 273.388C469.571 273.388 491.243 251.526 491.243 215.916V195.857C479.955 214.902 456.815 228.087 429.838 228.087C387.622 228.087 355 194.617 355 151.231C355 107.845 387.622 74.376 429.838 74.376C457.041 74.376 479.955 87.4481 491.243 106.831V84.2928C491.243 79.8978 494.742 76.5171 499.032 76.5171C503.434 76.6298 506.933 80.0105 506.933 84.4055ZM491.243 151.231C491.243 114.381 467.426 89.3639 432.095 89.3639C397.329 89.3639 371.367 115.959 371.367 151.569C371.367 186.842 397.329 213.437 432.095 213.437C467.426 213.437 491.243 188.419 491.243 151.231Z" fill="#141754"/>
<path d="M694.42 153.147C694.42 197.209 659.654 231.918 615.858 231.918C572.287 231.918 537.859 197.209 537.859 153.147C537.859 108.747 572.287 74.7139 616.083 74.7139C659.654 74.7139 694.42 109.085 694.42 153.147ZM554.114 153.485C554.114 189.771 580.753 217.268 615.745 217.268C650.737 217.268 678.053 189.433 678.053 153.485C678.053 116.86 650.85 89.3637 616.083 89.3637C580.753 89.3637 554.114 116.86 554.114 153.485Z" fill="#141754"/>
<path d="M845.002 82.4895C845.002 83.7291 844.664 84.9688 844.099 85.983L779.872 226.96C778.292 230.115 775.808 231.918 772.648 231.918C769.149 231.918 766.665 230.002 765.085 226.96L701.309 86.321C700.632 85.0814 700.406 83.8418 700.406 82.6022C700.406 78.2073 704.131 74.8266 708.195 74.8266C711.694 74.8266 714.403 76.9677 715.983 80.123L772.648 207.013L829.312 80.0103C830.893 76.855 833.376 74.7139 837.101 74.7139C841.277 74.7139 845.002 78.0946 845.002 82.4895Z" fill="#141754"/>
<path d="M275.647 218.959C279.484 211.634 282.532 203.971 284.903 196.082C288.402 184.25 290.321 171.629 290.321 158.556C290.321 122.27 275.647 89.4767 251.829 65.6989C228.012 41.9211 195.165 27.2712 158.818 27.2712C122.472 27.2712 89.6246 41.9211 65.8075 65.6989C41.9904 89.4767 27.3163 122.27 27.3163 158.556C27.3163 194.843 41.9904 227.636 65.8075 251.414C89.6246 275.192 122.472 289.841 158.818 289.841C169.655 289.841 180.152 288.602 189.973 286.123C195.842 284.658 201.599 282.855 207.13 280.713C205.663 276.093 204.985 271.135 204.985 265.951C204.985 251.865 210.742 239.13 219.885 229.89C229.141 220.649 241.896 215.015 256.006 215.015C263.004 215.015 269.551 216.48 275.647 218.959ZM276.888 267.191L237.268 240.37C236.817 240.032 236.252 239.919 235.801 240.145H235.688C235.462 240.257 235.349 240.257 235.124 240.37C234.559 240.821 234.221 241.61 234.446 242.286L247.54 288.827C247.766 289.616 248.443 290.067 249.233 290.18L249.798 290.067C250.362 289.954 250.814 289.503 251.039 288.94L256.006 275.98L266.052 290.18C267.294 291.983 269.89 292.433 271.696 291.194C273.502 289.954 273.953 287.362 272.712 285.559L262.891 271.586L276.098 270.459C276.888 270.346 277.565 269.782 277.791 269.106C277.791 268.43 277.565 267.641 276.888 267.191ZM158.706 0C202.502 0 242.235 17.6925 270.906 46.4287C299.577 75.0523 317.411 114.72 317.411 158.444C317.411 174.108 315.154 189.208 310.864 203.633C307.478 215.015 302.85 225.833 297.206 235.975C303.414 244.427 307.026 254.795 307.026 265.951C307.026 280.037 301.27 292.771 292.127 302.012C282.871 311.253 270.116 316.887 256.006 316.887C242.912 316.887 230.947 311.929 221.917 303.815C213.79 307.309 205.211 310.239 196.294 312.38C184.103 315.31 171.574 316.887 158.706 316.887C114.909 316.887 75.1763 299.195 46.5055 270.459C17.7217 241.835 0 202.28 0 158.444C0 114.72 17.7217 75.0523 46.5055 46.4287C75.1763 17.6925 114.909 0 158.706 0Z" fill="#00AEEF"/>
<path d="M205.661 205.323C203.517 205.323 201.711 205.887 199.905 207.464C188.73 217.381 175.184 222.565 158.591 222.565C141.095 222.565 125.97 216.254 113.328 203.858C103.959 194.505 97.6377 182.447 94.9286 167.684H232.188C237.041 167.684 241.218 163.515 241.218 158.669C241.218 135.793 233.091 116.184 217.062 100.182C201.033 84.1802 181.506 76.0664 158.479 76.0664C135.79 76.0664 116.262 84.1802 100.234 100.182C84.2053 116.184 76.0781 135.68 76.0781 158.669C76.0781 181.32 84.2053 200.815 100.234 216.818C116.262 232.82 135.79 240.933 158.479 240.933C179.248 240.933 197.083 234.285 212.547 221.1C214.014 219.635 214.917 217.494 214.917 214.789C215.03 209.605 210.854 205.323 205.661 205.323ZM94.9286 149.316C97.6377 134.553 103.959 122.495 113.328 113.142C125.97 100.746 141.095 94.4351 158.591 94.4351C176.426 94.4351 191.439 100.746 204.194 113.142C213.563 122.833 219.884 134.778 222.593 149.316H94.9286Z" fill="#00AEEF"/>
</svg>
